<?xml version="1.0" standalone="no"?>
<!DOCTYPE svg PUBLIC "-//W3C//DTD SVG 20010904//EN"
 "http://www.w3.org/TR/2001/REC-SVG-20010904/DTD/svg10.dtd">
<svg version="1.0" xmlns="http://www.w3.org/2000/svg"
 width="1024.000000pt" height="1024.000000pt" viewBox="0 0 1024.000000 1024.000000"
 preserveAspectRatio="xMidYMid meet">
<metadata>
Created by potrace 1.14, written by Peter Selinger 2001-2017
</metadata>
<g transform="translate(0.000000,1024.000000) scale(0.100000,-0.100000)"
fill="#000000" stroke="none">
<path d="M1307 7398 c-72 -15 -152 -82 -183 -153 -17 -37 -18 -128 -19 -1343
0 -1017 2 -1312 12 -1346 16 -56 81 -128 141 -158 l47 -23 3810 0 c3704 0
3811 1 3858 19 56 22 129 98 148 154 11 29 13 308 13 1347 l-1 1310 -21 45
c-34 73 -88 122 -155 142 -33 9 -885 12 -3827 13 -2082 0 -3802 -3 -3823 -7z"/>
<path d="M1290 3838 c-44 -12 -111 -63 -141 -106 -40 -59 -45 -105 -44 -414 1
-257 4 -297 19 -326 28 -54 86 -111 135 -135 l46 -21 2260 -1 2260 0 47 23
c61 30 114 85 136 142 15 39 17 84 17 350 l0 305 -31 55 c-33 60 -99 112 -162
130 -50 14 -4493 12 -4542 -2z"/>
<path d="M6572 3825 c-65 -30 -115 -82 -139 -143 -16 -41 -18 -82 -18 -342 0
-257 2 -301 17 -340 30 -76 107 -143 183 -158 17 -3 545 -6 1175 -6 l1145 -1
46 22 c59 30 102 73 131 131 22 46 22 54 22 352 0 287 -1 308 -21 350 -25 56
-69 102 -125 132 l-43 23 -1160 2 -1160 3 -53 -25z"/>
</g>
</svg>
